<svg width="23" height="14" viewBox="0 0 23 14" fill="none" xmlns="http://www.w3.org/2000/svg">
<path d="M9.46239 6.328C9.93968 6.0942 10.3005 5.8338 10.5478 5.5524C10.9877 5.0456 11.2048 4.3736 11.2048 3.5406C11.2048 2.73 10.9877 2.037 10.5535 1.456C9.82898 0.5096 8.6027 0.0252 6.86893 0H0V13.6542H6.40458C7.12627 13.6542 7.79476 13.594 8.41293 13.4708C9.03111 13.3462 9.5659 13.118 10.0187 12.7848C10.4213 12.495 10.7577 12.1352 11.0251 11.711C11.4477 11.0698 11.6591 10.3432 11.6591 9.534C11.6591 8.75 11.4736 8.0822 11.1056 7.5334C10.7332 6.9846 10.187 6.5828 9.46239 6.328ZM2.83354 2.3716H5.92729C6.60729 2.3716 7.16796 2.443 7.60787 2.5844C8.11678 2.7902 8.37124 3.2088 8.37124 3.8472C8.37124 4.4198 8.17716 4.8202 7.79332 5.0456C7.4066 5.271 6.90487 5.3844 6.28957 5.3844H2.83354V2.3716ZM7.72575 11.0446C7.3836 11.2056 6.902 11.2854 6.28526 11.2854H2.83354V7.644H6.3327C6.94225 7.6482 7.41666 7.7266 7.75594 7.8736C8.35974 8.1396 8.6602 8.6268 8.6602 9.3394C8.6602 10.1794 8.34968 10.745 7.72575 11.0446Z" fill="black"/>
<path d="M20.7894 0.637H14.6982V2.3366H20.7894V0.637Z" fill="black"/>
<path d="M22.9055 7.3444C22.779 6.5534 22.5001 5.8576 22.066 5.257C21.5901 4.5766 20.9863 4.0782 20.2517 3.7632C19.52 3.4468 18.6962 3.2886 17.779 3.29C16.2393 3.29 14.9886 3.759 14.0211 4.69C13.0564 5.6238 12.5734 6.9664 12.5734 8.7164C12.5734 10.5826 13.1068 11.9308 14.1792 12.7582C15.2474 13.587 16.4808 14 17.8811 14C19.576 14 20.8943 13.5086 21.836 12.5286C22.4383 11.9098 22.779 11.3008 22.8538 10.703H20.0476C19.8851 10.9984 19.6968 11.2294 19.4811 11.3974C19.0901 11.7054 18.5812 11.8594 17.9573 11.8594C17.3635 11.8594 16.8604 11.732 16.4406 11.4786C15.7477 11.0726 15.3854 10.3614 15.3394 9.3492H22.9976C23.0091 8.477 22.9803 7.8064 22.9055 7.3444ZM15.4084 7.6062C15.509 6.9496 15.7534 6.4288 16.1416 6.0438C16.5297 5.6602 17.0789 5.467 17.7819 5.4656C18.4302 5.4656 18.9722 5.6462 19.4136 6.0088C19.8492 6.3742 20.095 6.9048 20.1453 7.6062H15.4084Z" fill="black"/>
</svg>
